<svg id="_ÎÓÈ_1" data-name="—ÎÓÈ_1" xmlns="http://www.w3.org/2000/svg" viewBox="0 0 1100 740"><defs><style>.cls-1{fill:#fff;}.cls-2{fill:#f8f7ff;}.cls-3{fill:#ddd6ff;}.cls-4{fill:#c4b8ff;}.cls-5{fill:#ff95a9;}.cls-6{fill:#40327a;}.cls-7{fill:#7760db;}.cls-8{fill:#a796f2;}.cls-9{fill:#ffc359;}.cls-10{fill:#ffc7bd;}.cls-11{fill:#ff9d45;}.cls-12{fill:#ff809f;}.cls-13{fill:#eeebff;}.cls-14{fill:#e5659b;}.cls-15{fill:none;}.cls-16{fill:#8b77e8;}.cls-17{fill:#624ac9;}</style></defs><rect class="cls-1" width="1100" height="740"/><path class="cls-2" d="M977.52,624s92.43-60.17,37.05-116.45-71.94-49.3-56-112,80.51-86.06,54.84-133.66c-30.81-57.13-101.07-5-144.73,15-81.18,37.19-80.7-18.41-49.52-70.43S852.57,67.72,780.57,67.72c-78.31,0-250.41,169.22-345.22,286.17-56.75,70-98.1,21.29-92.36-23.67,3.65-28.59,11.25-74.78-6.53-96-30.86-36.9-121.53,78.7-153.54,128.08C57.64,555.55,209.93,624,209.93,624Z"/><path class="cls-2" d="M278.06,152.61c3.51-8.05,4.64-14.23,2.14-19.32-7.4-15.08-45.13-17.5-69.3-2.82-33.71,20.47-42.62,75.14-27.19,87.28C201.66,231.88,259.91,194.19,278.06,152.61Z"/><path class="cls-3" d="M518.7,640.05h0Z"/><rect class="cls-4" x="518.7" y="639.05" width="285.08" height="2"/><path class="cls-3" d="M734.94,655.29h0Z"/><rect class="cls-4" x="734.94" y="654.29" width="124.04" height="2"/><path class="cls-3" d="M469.9,655.29h0Z"/><rect class="cls-4" x="469.9" y="654.29" width="226.88" height="2"/><path class="cls-3" d="M299.19,655.29h0Z"/><rect class="cls-4" x="299.19" y="654.29" width="33.7" height="2"/><path class="cls-3" d="M342.85,655.29h0Z"/><rect class="cls-4" x="342.85" y="654.29" width="10.18" height="2"/><path class="cls-3" d="M838.42,640.28h0Z"/><rect class="cls-4" x="838.42" y="639.28" width="57.97" height="2"/><path class="cls-3" d="M408,640.05h0Z"/><rect class="cls-4" x="408.01" y="639.05" width="87.88" height="2"/><path class="cls-3" d="M235.46,640.05h0Z"/><rect class="cls-4" x="235.46" y="639.05" width="153.68" height="2"/><path class="cls-3" d="M190.3,640.05h0Z"/><rect class="cls-4" x="190.3" y="639.05" width="26.85" height="2"/><rect class="cls-3" x="396.68" y="150.7" width="367.49" height="473.34"/><polygon class="cls-4" points="764.17 446.05 764.17 624.04 396.68 624.04 396.68 503.3 764.17 446.05"/><rect class="cls-1" x="363.75" y="223.63" width="433.34" height="327.48" transform="translate(967.79 -193.05) rotate(90)"/><polygon class="cls-5" points="679.39 289.74 656.13 270.55 662.5 262.83 677.9 275.55 710.21 234.89 718.04 241.11 679.39 289.74"/><path class="cls-1" d="M604,264.53h0Z"/><rect class="cls-6" x="603.97" y="263.53" width="30.33" height="2"/><path class="cls-1" d="M501.8,264.53h0Z"/><rect class="cls-6" x="501.8" y="263.53" width="90.83" height="2"/><path class="cls-1" d="M562,279.19h0Z"/><rect class="cls-6" x="561.99" y="278.19" width="72.31" height="2"/><path class="cls-1" d="M553.3,279.19h0Z"/><rect class="cls-6" x="553.3" y="278.19" width="4.18" height="2"/><path class="cls-1" d="M460.64,279.19h0Z"/><rect class="cls-6" x="460.64" y="278.19" width="82.33" height="2"/><path class="cls-1" d="M460.64,293.85h0Z"/><rect class="cls-6" x="460.64" y="292.85" width="117.67" height="2"/><polygon class="cls-5" points="679.39 366.36 656.13 347.16 662.5 339.45 677.9 352.16 710.21 311.51 718.04 317.73 679.39 366.36"/><path class="cls-1" d="M501.8,341.15h0Z"/><rect class="cls-6" x="501.8" y="340.15" width="132.5" height="2"/><path class="cls-1" d="M460.64,341.15h0Z"/><rect class="cls-6" x="460.64" y="340.15" width="30.83" height="2"/><path class="cls-1" d="M460.64,355.81h0Z"/><rect class="cls-6" x="460.64" y="354.81" width="160.5" height="2"/><path class="cls-1" d="M519,370.47h0Z"/><rect class="cls-6" x="518.99" y="369.47" width="3.32" height="2"/><path class="cls-1" d="M460.64,370.47h0Z"/><rect class="cls-6" x="460.64" y="369.47" width="52.18" height="2"/><polygon class="cls-5" points="679.39 442.98 656.13 423.78 662.5 416.07 677.9 428.78 710.21 388.13 718.04 394.35 679.39 442.98"/><path class="cls-1" d="M460.64,417.76h0Z"/><rect class="cls-6" x="460.64" y="416.76" width="173.67" height="2"/><path class="cls-1" d="M580.42,432.43h0Z"/><rect class="cls-6" x="580.42" y="431.43" width="53.88" height="2"/><path class="cls-1" d="M460.64,432.43h0Z"/><rect class="cls-6" x="460.64" y="431.43" width="107.33" height="2"/><path class="cls-1" d="M460.64,447.09h0Z"/><rect class="cls-6" x="460.64" y="446.09" width="149" height="2"/><polygon class="cls-1" points="672.13 293.85 665.7 293.85 665.7 283.13 672.13 293.85"/><polygon class="cls-7" points="672.13 294.85 664.7 294.85 664.7 283.13 666.7 283.13 666.7 292.85 672.13 292.85 672.13 294.85"/><polygon class="cls-7" points="706.7 294.85 676.91 294.85 676.91 292.85 704.7 292.85 704.7 262.36 706.7 262.36 706.7 294.85"/><path class="cls-1" d="M690,253.85h0Z"/><rect class="cls-7" x="689.95" y="252.85" width="2.94" height="2"/><polygon class="cls-1" points="665.7 258.37 665.7 253.85 686.39 253.85 665.7 258.37"/><polygon class="cls-7" points="666.7 258.37 664.7 258.37 664.7 252.85 686.39 252.85 686.39 254.85 666.7 254.85 666.7 258.37"/><polygon class="cls-7" points="683.51 371.47 664.7 371.47 664.7 366.06 666.7 366.06 666.7 369.47 683.51 369.47 683.51 371.47"/><polygon class="cls-7" points="706.7 371.47 687.22 371.47 687.22 369.47 704.7 369.47 704.7 346.77 706.7 346.77 706.7 371.47"/><rect class="cls-7" x="704.7" y="338.52" width="2" height="3.62"/><polygon class="cls-7" points="666.7 362.26 664.7 362.26 664.7 329.47 693.51 329.47 693.51 331.47 666.7 331.47 666.7 362.26"/><polygon class="cls-7" points="706.7 448.09 664.7 448.09 664.7 428.72 666.7 428.72 666.7 446.09 704.7 446.09 704.7 439.13 706.7 439.13 706.7 448.09"/><rect class="cls-7" x="704.7" y="435.8" width="2" height="3.33"/><rect class="cls-7" x="704.7" y="418.76" width="2" height="12.62"/><rect class="cls-7" x="704.7" y="416.27" width="2" height="2.5"/><rect class="cls-7" x="688.22" y="406.09" width="2.92" height="2"/><polygon class="cls-7" points="666.7 414.09 664.7 414.09 664.7 406.09 684.8 406.09 684.8 408.09 666.7 408.09 666.7 414.09"/><rect class="cls-7" x="664.7" y="510.39" width="2" height="2.74"/><polygon class="cls-7" points="706.7 524.71 664.7 524.71 664.7 516.97 666.7 516.97 666.7 522.71 704.7 522.71 704.7 517.76 706.7 517.76 706.7 524.71"/><rect class="cls-7" x="704.7" y="490.88" width="2" height="22.25"/><polygon class="cls-5" points="679.39 519.59 656.13 500.4 662.5 492.69 677.9 505.4 710.21 464.74 718.04 470.97 679.39 519.59"/><path class="cls-1" d="M460.64,494.38h0Z"/><rect class="cls-6" x="460.64" y="493.38" width="160.5" height="2"/><path class="cls-1" d="M507.7,509.05h0Z"/><rect class="cls-6" x="507.7" y="508.04" width="126.6" height="2"/><path class="cls-1" d="M495.64,509.05h0Z"/><rect class="cls-6" x="495.64" y="508.04" width="3.43" height="2"/><path class="cls-1" d="M460.64,509.05h0Z"/><rect class="cls-6" x="460.64" y="508.04" width="23.33" height="2"/><path class="cls-1" d="M460.64,523.71h0Z"/><rect class="cls-6" x="460.64" y="522.71" width="61.67" height="2"/><rect class="cls-6" x="416.68" y="603.04" width="327.48" height="2"/><polygon class="cls-4" points="490.43 150.7 490.43 200.7 670.43 200.7 670.43 150.7 615.17 150.7 600.96 120.05 559.91 120.05 545.7 150.7 490.43 150.7"/><polygon class="cls-8" points="490.43 150.7 490.43 187.15 670.43 159.11 670.43 150.7 615.17 150.7 600.96 120.05 559.91 120.05 545.7 150.7 490.43 150.7"/><rect class="cls-4" x="125.57" y="624.04" width="883.68" height="2"/><path class="cls-4" d="M812.45,296.77c-2.94,13.62-7.87,26.74-11.81,40.12-4,13.76-8.13,27.77-8.08,42.12a75.15,75.15,0,0,0,20.28,50.77c5,5.32,10.89,10,14.75,16.17s5.3,14.74,1,20.64c-6.23,8.51-19.56,6.67-28.68,12-11.47,6.69-13.06,23.76-6.52,35.33s36.32,44.64,78.82,36.45c19-3.67,44.81-21.77,44.07-41.13-.76-20.16-20-36.49-19.35-56.65.43-13.2,9.3-24.37,17-35.12s14.85-23.84,11.31-36.57c-5.21-18.75-29.35-24.54-41-40.09-7.52-10-9.18-23.18-9.65-35.7s-.15-25.35-4.32-37.16C860.07,239.3,824.11,242.71,812.45,296.77Z"/><rect class="cls-6" x="856.12" y="368.8" width="2" height="217.25"/><path class="cls-6" d="M858.1,431.57l-2-.32c3.23-19.66,25.58-31.88,26.53-32.39l1,1.76C883.39,400.74,861.18,412.9,858.1,431.57Z"/><path class="cls-6" d="M856.13,517.12c-2.19-13.27-18-21.94-18.18-22l.95-1.76c.68.37,16.86,9.22,19.2,23.47Z"/><path class="cls-9" d="M820.94,578.55h72a0,0,0,0,1,0,0v20.75A24.75,24.75,0,0,1,868.2,624H845.69a24.75,24.75,0,0,1-24.75-24.75V578.55A0,0,0,0,1,820.94,578.55Z"/><path class="cls-6" d="M833.73,622.1a25.72,25.72,0,0,1-13.79-22.81v-7.63h2v7.63a23.71,23.71,0,0,0,12.72,21Z"/><rect class="cls-1" x="820.94" y="585.05" width="72" height="2"/><rect class="cls-6" x="847.08" y="577.55" width="45.86" height="2"/><rect class="cls-6" x="857.84" y="624.04" width="51.62" height="2"/><rect class="cls-6" x="198.57" y="624.04" width="92.6" height="2"/><rect class="cls-6" x="611.74" y="624.04" width="9.4" height="2"/><rect class="cls-6" x="313.75" y="624.04" width="286.32" height="2"/><rect class="cls-6" x="653.57" y="624.04" width="137.33" height="2"/><rect class="cls-6" x="176.82" y="624.04" width="7.25" height="2"/><rect class="cls-6" x="920.07" y="624.04" width="19.5" height="2"/><rect class="cls-7" x="763.17" y="562.55" width="2" height="46.83"/><rect class="cls-7" x="763.17" y="346.77" width="2" height="194.45"/><rect class="cls-7" x="395.68" y="480.22" width="2" height="59.83"/><rect class="cls-7" x="395.68" y="466.63" width="2" height="4.09"/><rect class="cls-7" x="395.68" y="413.56" width="2" height="48.16"/><polygon class="cls-7" points="671.43 201.7 575.88 201.7 575.88 199.7 669.43 199.7 669.43 150.7 671.43 150.7 671.43 201.7"/><rect class="cls-7" x="506.65" y="199.7" width="58.36" height="2"/><polygon class="cls-8" points="765.17 228.02 763.17 228.02 763.17 151.7 734.22 151.7 734.22 149.7 765.17 149.7 765.17 228.02"/><rect class="cls-8" x="711.22" y="149.7" width="14.34" height="2"/><circle class="cls-1" cx="580.43" cy="138.22" r="8.54" transform="translate(351.02 689.01) rotate(-80.78)"/><path class="cls-7" d="M589.52,141.1l-1.9-.6a7.64,7.64,0,0,0,.35-2.28,7.54,7.54,0,0,0-14.31-3.33l-1.8-.88A9.55,9.55,0,0,1,590,138.22,9.37,9.37,0,0,1,589.52,141.1Z"/><path class="cls-7" d="M580.43,147.76a9.55,9.55,0,0,1-9.54-9.54v-.28l2,.06v.22a7.55,7.55,0,0,0,7.54,7.54,7.42,7.42,0,0,0,2.3-.36l.62,1.9A9.33,9.33,0,0,1,580.43,147.76Z"/><polygon class="cls-7" points="666.7 498.22 664.7 498.22 664.7 482.71 689.68 482.71 689.68 484.71 666.7 484.71 666.7 498.22"/><path class="cls-4" d="M97.86,396.1a9,9,0,1,1,9-9A9,9,0,0,1,97.86,396.1Zm0-16a7,7,0,1,0,7,7A7,7,0,0,0,97.86,380.1Z"/><rect class="cls-4" x="903.11" y="154.01" width="2" height="8.57"/><rect class="cls-4" x="903.11" y="205.44" width="2" height="8.57"/><rect class="cls-4" x="890.25" y="157.45" width="2" height="8.57" transform="translate(38.53 467.29) rotate(-30)"/><rect class="cls-4" x="915.96" y="201.99" width="2" height="8.57" transform="translate(19.7 486.07) rotate(-30)"/><rect class="cls-4" x="880.84" y="166.87" width="2" height="8.57" transform="translate(292.68 849.25) rotate(-60)"/><rect class="cls-4" x="925.37" y="192.58" width="2" height="8.57" transform="translate(292.73 900.73) rotate(-60)"/><rect class="cls-4" x="874.11" y="183.01" width="8.57" height="2"/><rect class="cls-4" x="925.53" y="183.01" width="8.57" height="2"/><rect class="cls-4" x="877.55" y="195.87" width="8.57" height="2" transform="translate(19.69 467.22) rotate(-29.99)"/><rect class="cls-4" x="922.09" y="170.15" width="8.57" height="2" transform="translate(38.5 486.02) rotate(-29.99)"/><rect class="cls-4" x="886.96" y="205.28" width="8.57" height="2" transform="translate(267.04 875.04) rotate(-60.01)"/><rect class="cls-4" x="912.68" y="160.74" width="8.57" height="2" transform="translate(318.47 875.04) rotate(-60.01)"/><path class="cls-4" d="M455.4,108.72h-2a14,14,0,0,0-14-14v-2a14,14,0,0,0,14-14h2a14,14,0,0,0,14,14v2A14,14,0,0,0,455.4,108.72ZM445,93.72a16.08,16.08,0,0,1,9.43,9.43,16.08,16.08,0,0,1,9.43-9.43,16.08,16.08,0,0,1-9.43-9.43A16.08,16.08,0,0,1,445,93.72Z"/><rect class="cls-1" x="489.43" y="150.7" width="2" height="51.77"/><polygon class="cls-10" points="360.07 235.95 371.09 234.06 384.98 291.91 366.39 295.11 360.07 235.95"/><rect class="cls-11" x="177.68" y="277.75" width="273.33" height="14.97" transform="translate(-60.62 86.3) rotate(-14.27)"/><rect class="cls-9" x="173.99" y="263.24" width="273.33" height="14.97" transform="translate(-57.15 84.94) rotate(-14.27)"/><rect class="cls-9" x="170.29" y="248.73" width="273.33" height="14.97" transform="translate(-53.69 83.58) rotate(-14.27)"/><rect class="cls-12" x="134.32" y="290.26" width="22.46" height="44.92" transform="translate(-72.6 45.53) rotate(-14.27)"/><rect class="cls-13" x="156.09" y="284.73" width="22.46" height="44.92" transform="translate(-70.57 50.73) rotate(-14.27)"/><polygon class="cls-13" points="510.86 219.8 437.56 215.27 448.63 258.8 510.86 219.8"/><polygon class="cls-3" points="488.85 233.6 448.63 258.81 444.95 244.29 487.54 228.47 488.85 233.6"/><polygon class="cls-14" points="510.86 219.8 488.85 233.6 487.54 228.47 510.86 219.8"/><polygon class="cls-12" points="510.86 219.8 487.54 228.47 484.93 218.19 510.86 219.8"/><rect class="cls-3" x="159.78" y="314.21" width="22.46" height="14.97" transform="translate(-74.03 52.09) rotate(-14.27)"/><rect class="cls-14" x="138.01" y="319.75" width="22.46" height="14.97" transform="translate(-76.07 46.89) rotate(-14.27)"/><rect class="cls-6" x="225.2" y="287.22" width="214.13" height="2" transform="translate(-60.83 90.87) rotate(-14.28)"/><rect class="cls-7" x="173.93" y="322.14" width="43.54" height="2" transform="translate(-73.67 58.26) rotate(-14.28)"/><polygon class="cls-7" points="139.48 338.48 131.79 308.24 133.73 307.75 140.93 336.04 170.65 328.49 171.14 330.42 139.48 338.48"/><polygon class="cls-7" points="130.22 302.06 127.92 293 150.65 287.22 151.15 289.16 130.35 294.45 132.16 301.57 130.22 302.06"/><rect class="cls-1" x="176.44" y="282.06" width="2" height="38.75" transform="translate(-68.83 53.05) rotate(-14.27)"/><rect class="cls-1" x="156.76" y="313.02" width="2" height="4.26" transform="translate(-72.82 48.61) rotate(-14.27)"/><rect class="cls-1" x="153.87" y="298.01" width="2" height="11.55" transform="translate(-70.12 47.56) rotate(-14.27)"/><rect class="cls-1" x="440.25" y="214.81" width="2" height="29.95" transform="translate(-43.04 115.91) rotate(-14.28)"/><path class="cls-15" d="M318.39,231.38l-5.15-16.5Z"/><path class="cls-6" d="M250.91,342.33c3.13-4.23,6.26-8.36,6.38-14.57.28-15.31-6.53-16-5.63-31.32S263.9,282,264.79,266.67a18.62,18.62,0,0,0-.38-5.26,39.41,39.41,0,0,1-2.9-6.41c-.14-.38-.27-.78-.39-1.17a39.39,39.39,0,1,1,74.72,1.38c-.13.39-.28.76-.42,1.14v0a39.21,39.21,0,0,1-3.15,6.32,19.09,19.09,0,0,0-.56,5.22c.32,15.32,11.68,14.93,12,30.24s-6.51,15.78-6.79,31.08c-.12,6.22,2.86,10.46,5.84,14.81s5.94,8.82,5.82,15.43a34.33,34.33,0,0,1-35,33.68l-35.42-.66a34.3,34.3,0,0,1-33.67-34.95C244.65,350.93,247.79,346.58,250.91,342.33Z"/><circle class="cls-10" cx="312.51" cy="375.02" r="23.25" transform="matrix(0.66, -0.75, 0.75, 0.66, -175.51, 363.34)"/><circle class="cls-5" cx="321.22" cy="300.95" r="13" transform="translate(-116.78 344.6) rotate(-48.82)"/><path class="cls-10" d="M373.59,284.93a9.45,9.45,0,1,1-7,11.39A9.46,9.46,0,0,1,373.59,284.93Z"/><polygon class="cls-10" points="320.46 287.97 375.24 284.69 377.57 303.4 323.67 313.71 320.46 287.97"/><circle class="cls-5" cx="246.24" cy="615.04" r="6.5"/><circle class="cls-16" cx="320.25" cy="615.04" r="6.5"/><path class="cls-10" d="M334.21,300.68l1.5,72.79-46.4,3.1L265,301.65a8,8,0,0,1,7.08-10.45L320.35,288A13,13,0,0,1,334.21,300.68Z"/><circle class="cls-10" cx="321.22" cy="300.95" r="13" transform="translate(-58.29 77.96) rotate(-12.7)"/><path class="cls-16" d="M335.76,375h-46.5l-2.51,2a34.63,34.63,0,0,0-13.38,27.34v10a14,14,0,0,0,14,14h40.38a14,14,0,0,0,14-14v-13.7A57.71,57.71,0,0,0,335.76,375Z"/><path class="cls-10" d="M345.62,325.1a12.88,12.88,0,0,0-1.16-4.53h0l-11.43-25-23.66,10.8,11.43,25h0a13,13,0,0,0,24.79-6.26Z"/><rect class="cls-5" x="335.56" y="301.17" width="2" height="4.11" transform="translate(-95.57 167.26) rotate(-24.55)"/><path class="cls-5" d="M332.62,340a13.92,13.92,0,0,1-5.5-1.13l.8-1.84a11.88,11.88,0,0,0,5.53.95,12,12,0,0,0,11.17-12.78,11.68,11.68,0,0,0-1.07-4.18l-.42-.93h0l-5-11,1.82-.83,5.87,12.85,0,0a14,14,0,0,1-12.19,18.83Z"/><path class="cls-10" d="M262.59,311.38a13,13,0,1,0,3.56-18A13,13,0,0,0,262.59,311.38Z"/><polygon class="cls-10" points="264.81 294.38 223.54 330.55 235.03 345.5 280.63 314.95 264.81 294.38"/><circle class="cls-16" cx="327.75" cy="414.32" r="14"/><circle class="cls-16" cx="287.37" cy="414.32" r="14"/><circle class="cls-16" cx="325.06" cy="486.71" r="11.31"/><polygon class="cls-5" points="313.75 414.32 313.75 486.71 336.34 487.56 341.71 415.38 313.75 414.32"/><rect class="cls-5" x="290.9" y="262.12" width="22" height="27.09" transform="translate(637.81 508.69) rotate(172.35)"/><path class="cls-5" d="M292.8,290.56a11,11,0,1,0,9.43-12.37A11,11,0,0,0,292.8,290.56Z"/><path class="cls-5" d="M286.92,254.5l4.95-.66-1.33-9.91-5,.66a5,5,0,0,0-4.29,5.62h0A5,5,0,0,0,286.92,254.5Z"/><path class="cls-5" d="M321.29,220.61l-37.24,5,6.46,48.08,23.13-3.11a16.21,16.21,0,0,0,13.74-19.21Z"/><path class="cls-6" d="M286.58,244.46l-1,.13L281.74,216l29.5-4a14.24,14.24,0,0,1,16,12.21l.07.56-1,.14a39.13,39.13,0,0,0-22.33,11h0a30.55,30.55,0,0,1-17.42,8.57Z"/><polygon class="cls-5" points="319.49 311.22 317.95 288.14 282.75 290.49 319.49 311.22"/><polygon class="cls-5" points="336.34 487.57 326.74 615.53 313.75 615.04 313.75 486.71 336.34 487.57"/><path class="cls-5" d="M278.92,390.44a5,5,0,1,1-5.18-4.82A5,5,0,0,1,278.92,390.44Z"/><path class="cls-5" d="M286.23,399.19a6.91,6.91,0,0,1-2.28-.3h0l-11.48-3.48,1.27-9.79,12-.42a7,7,0,0,1,.49,14Z"/><path class="cls-10" d="M235.34,345.28a9.44,9.44,0,1,0-13.19-2.06A9.45,9.45,0,0,0,235.34,345.28Z"/><polygon class="cls-5" points="222.93 344.16 270.3 394.07 277.96 387.67 237.41 332.08 222.93 344.16"/><polygon class="cls-10" points="263.89 387.32 272.47 380.15 237.41 332.08 222.93 344.17 263.89 387.32"/><polygon class="cls-5" points="273.56 412 239.82 613.96 252.55 616.58 300.97 417.64 273.56 412"/><path class="cls-6" d="M239.74,615h13v9H234.52a2.78,2.78,0,0,1-2.78-2.79h0a2.79,2.79,0,0,1,1.39-2.41Z"/><path class="cls-1" d="M320.17,255.55a5.5,5.5,0,0,1-10.87,1.69Z"/><rect class="cls-17" x="238.28" y="604.65" width="5.86" height="2" transform="translate(-395.94 743.6) rotate(-80.5)"/><rect class="cls-17" x="312.75" y="457.47" width="2" height="6.47"/><rect class="cls-5" x="247.34" y="334.82" width="4.28" height="2" transform="translate(-144.68 195.65) rotate(-33.81)"/><rect class="cls-5" x="252.28" y="323.94" width="26.87" height="2" transform="translate(-135.88 202.82) rotate(-33.81)"/><rect class="cls-5" x="329.38" y="285.25" width="39.42" height="2" transform="translate(-16.51 21.41) rotate(-3.43)"/><rect class="cls-7" x="340.09" y="233.93" width="40.41" height="2" transform="translate(-46.82 96.14) rotate(-14.28)"/><path class="cls-5" d="M357.63,233.5a5,5,0,1,1,6.72,2.19A5,5,0,0,1,357.63,233.5Z"/><path class="cls-5" d="M347.31,228.64a6.84,6.84,0,0,1,2.2-.68h0l11.88-1.67,3,9.41-10.7,5.43a7,7,0,1,1-6.34-12.48Z"/><polygon class="cls-16" points="262.22 479.92 336.91 479.92 341.71 415.38 273.56 412 262.22 479.92"/><rect class="cls-17" x="165.93" y="508.05" width="182.84" height="2" transform="translate(-287.2 678.85) rotate(-80.5)"/><rect class="cls-17" x="312.75" y="491.14" width="2" height="117.4"/><path class="cls-6" d="M326.75,615h-13v9H332a2.78,2.78,0,0,0,2.78-2.79h0a2.79,2.79,0,0,0-1.39-2.41Z"/></svg>